<svg version="1.1" xmlns="http://www.w3.org/2000/svg" viewBox="-14.033976823946174 -1.4861801811237476 27.11905393181498 2.98616728780644" fill="none" stroke="black" stroke-width="0.6%" vector-effect="non-scaling-stroke">
    <path d="M 3.98013 -0.14663 L 0.06014 -0.15259" />
    <path d="M 3.98013 -0.14663 L 3.98013 0.35335 L 0 0.49999 L 0 0 L 3.98013 -0.14663 Z" />
    <path d="M 0 0.49999 L -3.91999 0.49403 L -3.91999 -0.00596 L 0.06014 -0.15259" />
    <path d="M 0 0 L -3.91999 -0.00596" />
    <path d="M -4.55699 0.49306 L -8.47698 0.48711 L -8.47698 0.23711 L -8.37748 0.23345 L -8.37748 -0.01654 L -5.8899 -0.10819" />
    <path d="M -4.55699 0.24307 L -8.47698 0.23711" />
    <path d="M -4.55699 0.49306 L -4.55699 0.24307 L -4.45749 0.2394 L -4.45749 -0.01059 L -4.70249 -0.01096" />
    <path d="M -3.91999 0.4696 L -4.55699 0.49306" />
    <path d="M -4.94749 0.23866 L -8.37748 0.23345" />
    <path d="M -4.70249 0.22963 L -4.94749 0.23866 L -4.94749 -0.01133 L -2.45991 -0.10298 L -2.45991 -0.09358" />
    <path d="M -4.45749 0.2394 L -4.70249 0.23903 L -4.70249 -0.01096" />
    <path d="M -4.45749 -0.01059 L -1.96991 -0.10223 L -2.21491 -0.10261 L -4.70249 -0.01096" />
    <path d="M -1.96991 -0.10223 L -1.96991 -0.0778" />
    <path d="M -4.94749 -0.01133 L -8.37748 -0.01654" />
    <path d="M -2.45991 -0.10298 L -5.8899 -0.10819" />
    <path d="M -1.64155 -0.0899 L -1.64155 -0.11433 L -1.88655 -0.1147" />
    <path d="M -1.64155 -0.11433 L 0.84603 -0.20598 L 0.60103 -0.20635 L -1.88655 -0.1147" />
    <path d="M 0.84603 -0.20598 L 0.84603 -0.15139" />
    <path d="M -5.56154 -0.10769 L -5.56154 -0.12029 L -3.07396 -0.21193" />
    <path d="M 0.35603 -0.20672 L 0.35603 -0.19732" />
    <path d="M 0.35603 -0.20672 L -3.07396 -0.21193" />
    <path d="M -1.88655 -0.08087 L -1.88655 -0.1147" />
    <path d="M -2.13155 -0.10248 L -2.13155 -0.11508 L 0.35603 -0.20672" />
    <path d="M -2.13155 -0.11508 L -5.56154 -0.12029" />
    <path d="M -0.16828 -0.35562 L -0.16828 -0.36267 L -0.35558 -0.36391" />
    <path d="M -0.35558 -0.3559 L -0.35558 -0.36391" />
    <path d="M -0.54288 -0.35618 L -0.54288 -0.36514 L 11.71048 -0.46884 L 9.08828 -0.48618" />
    <path d="M -0.54288 -0.36514 L -3.16508 -0.38249 L 9.08828 -0.48618" />
    <path d="M -3.16508 -0.36017 L -3.16508 -0.38249" />
    <path d="M 12.08508 -0.46636 L -0.16828 -0.36267" />
    <path d="M 12.08508 -0.46636 L 12.08508 0.03363 L 9.0195 0.05957" />
    <path d="M 11.89778 -0.4676 L -0.35558 -0.36391" />
    <path d="M 12.08508 -0.46636 L 11.89778 -0.4676" />
    <path d="M 11.71048 -0.46884 L 11.71048 -0.46601" />
    <path d="M -9.11398 0.48614 L -13.03398 0.48018 L -13.03398 -0.0198 L -9.35236 -0.15544" />
    <path d="M -8.47698 0.46267 L -9.11398 0.48614 L -9.11398 -0.01385 L -9.35898 -0.01422 L -5.67736 -0.14985" />
    <path d="M -5.43236 -0.14948 L -5.43236 -0.12505" />
    <path d="M -5.92236 -0.15022 L -9.35236 -0.15544" />
    <path d="M -5.92236 -0.15022 L -5.92236 -0.14083" />
    <path d="M -5.43236 -0.14948 L -5.67736 -0.14985" />
    <path d="M -9.35898 0.23577 L -9.35898 -0.01422" />
    <path d="M -9.35898 0.23577 L -9.60398 0.2354 L -9.60398 -0.01459 L -5.92236 -0.15022" />
    <path d="M -9.60398 -0.01459 L -13.03398 -0.0198" />
    <path d="M -5.43236 -0.14948 L -9.11398 -0.01385" />
    <path d="M -9.35898 0.22638 L -9.60398 0.2354" />
    <path d="M 5.33788 0.04206 L 5.33788 0.29206 L 3.98013 0.28999" />
    <path d="M 5.33788 0.04206 L 3.98013 0.04" />
    <path d="M 9.0195 -0.09357 L 9.0195 0.15642 L 5.33788 0.29206" />
    <path d="M 9.0195 -0.09357 L 5.33788 0.04206" />
    <path d="M 8.72475 -0.09402 L 9.0195 -0.09357" />
    <path d="M 5.14264 0.03986 L 3.98013 0.03809" />
    <path d="M 8.72475 -0.09211 L 5.14264 0.03986" />
    <path d="M 5.14264 -0.21014 L 5.14264 0.03986" />
    <path d="M -7.10734 -0.22875 L -7.10734 -0.15203" />
    <path d="M 5.14264 -0.21014 L -7.10734 -0.22875 L -3.52523 -0.36071 L 8.72475 -0.3421 L 5.14264 -0.21014 Z" />
    <path d="M 8.72475 -0.3421 L 8.72475 -0.09211" />
</svg>