<svg version="1.1" xmlns="http://www.w3.org/2000/svg" viewBox="-14.316947535514698 -1.4906937836982903 26.966964677660123 2.9871941116873417" fill="none" stroke="black" stroke-width="0.6%" vector-effect="non-scaling-stroke">
    <path d="M -0.99075 -0.09343 L -10.85516 -0.10341" />
    <path d="M -0.99075 -0.09343 L -0.99075 0.40656 L -3.45254 0.4965 L -3.45254 -0.00349 L -0.99075 -0.09343 Z" />
    <path d="M -3.45254 0.4965 L -13.31695 0.48652 L -13.31695 -0.01347 L -10.85516 -0.10341" />
    <path d="M -3.45254 -0.00349 L -13.31695 -0.01347" />
    <path d="M 11.65002 0.06515 L 11.00549 0.06661" />
    <path d="M 11.65002 -0.18485 L 11.18185 -0.19244" />
    <path d="M 11.18185 -0.18378 L 11.65002 -0.18485 L 11.65002 0.06515" />
    <path d="M 3.22294 -0.40841 L 3.22294 -0.41564 L 3.13516 -0.41706" />
    <path d="M 3.22294 -0.41564 L 11.18185 -0.43378 L 11.09407 -0.4352 L 3.13516 -0.41706" />
    <path d="M 11.18185 -0.43378 L 11.18185 -0.18378" />
    <path d="M -0.28795 -0.41196 L -0.28795 -0.47255 L 7.67096 -0.49069" />
    <path d="M 3.13516 -0.40849 L 3.13516 -0.41706" />
    <path d="M 3.04739 -0.40858 L 3.04739 -0.41848 L 11.0063 -0.43662 L 11.0063 -0.435" />
    <path d="M 3.04739 -0.41848 L -0.28795 -0.47255" />
    <path d="M 11.0063 -0.43662 L 7.67096 -0.49069" />
    <path d="M 7.68886 -0.0674 L 7.8477 -0.0666 L 7.8477 -0.3166" />
    <path d="M 8.00654 -0.06778 L 7.8477 -0.0666" />
    <path d="M 8.39265 -0.06584 L 8.00654 -0.06778 L 8.00654 -0.31777 L 7.8477 -0.3166" />
    <path d="M 8.39265 -0.06584 L 3.65383 -0.03084" />
    <path d="M 7.68886 -0.06543 L 3.65383 -0.03562" />
    <path d="M 8.39265 0.18415 L 3.65383 0.21916" />
    <path d="M 8.39265 0.18415 L 8.39265 -0.06584" />
    <path d="M 8.00654 -0.31777 L 1.44264 -0.3506 L 1.28381 -0.34942 L 7.8477 -0.3166" />
    <path d="M 1.65302 -0.26514 L 1.65302 -0.27083 L -4.91087 -0.30366 L -4.91087 -0.27178" />
    <path d="M 1.12497 -0.34825 L -4.91087 -0.30366" />
    <path d="M 1.28381 -0.34942 L 1.28381 -0.34746" />
    <path d="M 7.68886 -0.06543 L 7.68886 -0.31542 L 1.12497 -0.34825" />
    <path d="M 7.68886 -0.31542 L 1.65302 -0.27083" />
    <path d="M -0.88407 0.40266 L -0.88407 -0.09733 L -1.13068 -0.09758" />
    <path d="M -1.13068 -0.09357 L -1.13068 -0.09758" />
    <path d="M -1.37729 -0.09382 L -1.37729 -0.09783 L 0.83832 -0.17877 L 0.83832 -0.16951" />
    <path d="M -1.37729 -0.09783 L -10.74848 -0.1073 L -8.53287 -0.18825" />
    <path d="M -10.74848 -0.1033 L -10.74848 -0.1073" />
    <path d="M -0.88407 0.40266 L -0.99075 0.40255" />
    <path d="M 1.33154 -0.17827 L -0.88407 -0.09733" />
    <path d="M 1.33154 -0.17827 L 1.33154 0.32172 L -0.88407 0.40266" />
    <path d="M 1.08493 -0.17852 L -1.13068 -0.09758" />
    <path d="M 1.33154 -0.17827 L 1.08493 -0.17852" />
    <path d="M 0.83832 -0.17877 L -8.53287 -0.18825" />
    <path d="M 1.33154 0.31771 L 1.43822 0.31782 L 3.65383 0.23687 L 3.65383 -0.26312 L 1.43822 -0.18217 L 1.43822 0.31782" />
    <path d="M -8.42619 -0.19215 L -8.42619 -0.18814" />
    <path d="M -7.93297 -0.19165 L 1.43822 -0.18217" />
    <path d="M -7.93297 -0.19165 L -7.93297 -0.18764" />
    <path d="M -8.17958 -0.1919 L -8.17958 -0.18789" />
    <path d="M -8.42619 -0.19215 L -8.17958 -0.1919" />
    <path d="M -6.21058 -0.27309 L -5.96397 -0.27284 L -8.17958 -0.1919" />
    <path d="M -5.96397 -0.26358 L -5.96397 -0.27284" />
    <path d="M -5.71736 -0.27259 L 3.65383 -0.26312" />
    <path d="M -8.42619 -0.19215 L -6.21058 -0.27309" />
    <path d="M -5.71736 -0.27259 L -7.93297 -0.19165" />
    <path d="M 9.52841 -0.09812 L 9.52841 0.15188 L 8.39265 0.15073" />
    <path d="M 9.52841 -0.09812 L 8.00654 -0.09966" />
    <path d="M 11.00549 -0.15208 L 11.00549 0.09791 L 9.52841 0.15188" />
    <path d="M 10.71785 -0.15237 L 11.00549 -0.15208 L 9.52841 -0.09812" />
    <path d="M 10.71785 -0.15083 L 9.32283 -0.09987 L 8.00654 -0.1012" />
    <path d="M -3.5009 -0.36283 L -3.5009 -0.31408" />
    <path d="M -3.5009 -0.36283 L -2.10588 -0.4138 L 10.71785 -0.40083 L 9.32283 -0.34986 L 9.32283 -0.09987" />
    <path d="M 10.71785 -0.40083 L 10.71785 -0.15083" />
    <path d="M 9.32283 -0.34986 L -3.5009 -0.36283" />
</svg>