<svg version="1.1" xmlns="http://www.w3.org/2000/svg" viewBox="-22.87325229545903 -1.476750237726089 37.18642955053305 2.956585998748947" fill="none" stroke="black" stroke-width="0.6%" vector-effect="non-scaling-stroke">
    <path d="M 8.74915 0.31911 L 3.02974 0.43735 L -6.19506 0.4172 L -9.22481 0.47983 L -13.02885 0.47152 L -13.02885 -0.02846 L -6.8457 -0.15629" />
    <path d="M 8.74915 0.06912 L 8.74915 0.31911" />
    <path d="M 3.02974 0.18736 L 3.02974 0.43735" />
    <path d="M 8.74915 0.06912 L 3.02974 0.18736 L -6.19506 0.1672 L -6.19506 0.4172" />
    <path d="M 8.43411 0.06843 L 8.74915 0.06912" />
    <path d="M -9.22481 -0.02015 L -6.11778 -0.08439 L -6.11778 0.16561 L -6.19506 0.1672" />
    <path d="M -9.22481 0.47983 L -9.22481 -0.02015 L -13.02885 -0.02846" />
    <path d="M -5.94224 -0.15432 L -6.8457 -0.15629" />
    <path d="M 8.43411 0.0702 L 2.86928 0.18524 L -6.11778 0.16561" />
    <path d="M -5.94224 -0.15432 L -3.45353 -0.20577 L 8.43411 -0.1798 L 8.43411 0.0702" />
    <path d="M 8.43411 -0.1798 L 2.86928 -0.06475 L 2.86928 0.18524" />
    <path d="M 2.86928 -0.06475 L -6.11778 -0.08439" />
    <path d="M -13.64701 0.47017 L -17.45105 0.46186 L -17.45105 0.21187 L -17.29647 0.20867 L -17.29647 -0.04132 L -13.43201 -0.12121" />
    <path d="M -13.64701 0.22018 L -17.45105 0.21187" />
    <path d="M -13.64701 0.47017 L -13.64701 0.22018 L -13.49243 0.21698 L -13.49243 -0.03301 L -13.73018 -0.03353" />
    <path d="M -13.02885 0.45739 L -13.64701 0.47017" />
    <path d="M -13.96793 0.21594 L -17.29647 0.20867" />
    <path d="M -13.73018 0.21103 L -13.96793 0.21594 L -13.96793 -0.03405 L -10.10347 -0.11394 L -10.10347 -0.10851" />
    <path d="M -13.49243 0.21698 L -13.73018 0.21646 L -13.73018 -0.03353" />
    <path d="M -13.49243 -0.03301 L -9.62796 -0.1129 L -9.86571 -0.11342 L -13.73018 -0.03353" />
    <path d="M -9.62796 -0.1129 L -9.62796 -0.09877" />
    <path d="M -13.96793 -0.03405 L -17.29647 -0.04132" />
    <path d="M -10.10347 -0.11394 L -13.43201 -0.12121" />
    <path d="M -9.11785 -0.10932 L -9.11785 -0.12345 L -9.35561 -0.12397" />
    <path d="M -9.11785 -0.12345 L -5.25339 -0.20334 L -5.49114 -0.20386 L -9.35561 -0.12397" />
    <path d="M -5.25339 -0.20334 L -5.25339 -0.16856" />
    <path d="M -12.9219 -0.1201 L -12.9219 -0.13176 L -9.05743 -0.21165" />
    <path d="M -5.72889 -0.20438 L -5.72889 -0.19895" />
    <path d="M -5.72889 -0.20438 L -9.05743 -0.21165" />
    <path d="M -9.35561 -0.1044 L -9.35561 -0.12397" />
    <path d="M -9.59336 -0.09949 L -9.59336 -0.12449 L -5.72889 -0.20438" />
    <path d="M -9.59336 -0.12449 L -12.9219 -0.13176" />
    <path d="M -0.43683 -0.19918 L -0.43683 -0.37359 L -0.60408 -0.37484" />
    <path d="M -0.60408 -0.19955 L -0.60408 -0.37484" />
    <path d="M -0.77134 -0.19991 L -0.77134 -0.37609 L 12.97867 -0.45927 L 10.63709 -0.47675" />
    <path d="M -0.77134 -0.37609 L -3.11291 -0.39357 L 10.63709 -0.47675" />
    <path d="M -3.11291 -0.20503 L -3.11291 -0.39357" />
    <path d="M 13.31318 -0.45677 L -0.43683 -0.37359" />
    <path d="M 13.31318 -0.45677 L 13.31318 0.04322 L 8.74915 0.07083" />
    <path d="M 13.14592 -0.45802 L -0.60408 -0.37484" />
    <path d="M 13.31318 -0.45677 L 13.14592 -0.45802" />
    <path d="M 12.97867 -0.45927 L 12.97867 -0.45701" />
    <path d="M -18.06921 0.46051 L -21.87325 0.4522 L -21.87325 -0.04779 L -16.15384 -0.16603" />
    <path d="M -17.45105 0.44773 L -18.06921 0.46051 L -18.06921 -0.03948 L -18.30696 -0.04 L -12.58755 -0.15824" />
    <path d="M -12.3498 -0.15772 L -12.3498 -0.14359" />
    <path d="M -12.8253 -0.15876 L -16.15384 -0.16603" />
    <path d="M -12.8253 -0.15876 L -12.8253 -0.15332" />
    <path d="M -12.3498 -0.15772 L -12.58755 -0.15824" />
    <path d="M -18.30696 0.21 L -18.30696 -0.04" />
    <path d="M -18.30696 0.21 L -18.54471 0.20948 L -18.54471 -0.04052 L -12.8253 -0.15876" />
    <path d="M -18.54471 -0.04052 L -21.87325 -0.04779" />
    <path d="M -12.3498 -0.15772 L -18.06921 -0.03948" />
    <path d="M -18.30696 0.20456 L -18.54471 0.20948" />
</svg>