<svg version="1.1" xmlns="http://www.w3.org/2000/svg" viewBox="-16.461500481060057 -1.497112826513259 30.51680480701474 2.987661132911897" fill="none" stroke="black" stroke-width="0.6%" vector-effect="non-scaling-stroke">
    <path d="M -8.37311 -0.24888 L -10.35202 -0.19129 L -10.35202 -0.14825" />
    <path d="M 6.33025 0.26855 L 4.35135 0.32614 L 4.35135 -0.17385 L -10.35202 -0.19129" />
    <path d="M 1.53342 0.3228 L 4.35135 0.32614" />
    <path d="M 6.33025 -0.23144 L 4.35135 -0.17385" />
    <path d="M 6.33025 0.26855 L 6.33025 -0.23144 L -8.37311 -0.24888" />
    <path d="M -0.09895 -0.49711 L -1.78102 -0.44816 L -1.53596 -0.44787 L -1.53596 -0.41311" />
    <path d="M -1.78102 -0.44816 L -1.78102 -0.41263" />
    <path d="M 9.7033 -0.43532 L 9.7033 -0.48548 L 8.02122 -0.43653 L 8.02122 -0.43199" />
    <path d="M -0.09895 -0.49711 L 0.14611 -0.49682" />
    <path d="M 0.14611 -0.4894 L 0.14611 -0.49682" />
    <path d="M 0.39117 -0.49653 L 9.7033 -0.48548" />
    <path d="M -1.53596 -0.44787 L 0.14611 -0.49682" />
    <path d="M 0.39117 -0.49653 L -1.2909 -0.44758 L -1.2909 -0.4136" />
    <path d="M -1.2909 -0.44758 L 8.02122 -0.43653" />
    <path d="M 0.96816 0.10155 L 0.99307 0.10168 L 0.99307 -0.14832" />
    <path d="M 1.15844 0.10057 L 0.99307 0.10168" />
    <path d="M 1.53342 0.10252 L 1.15844 0.10057 L 1.15844 -0.14942 L 0.99307 -0.14832" />
    <path d="M 1.53342 0.10252 L 0.96816 0.10628" />
    <path d="M 1.53342 0.35251 L 0.96816 0.35628" />
    <path d="M 1.53342 0.35251 L 1.53342 0.10252" />
    <path d="M 1.15844 -0.14942 L -5.21616 -0.18246 L -5.38154 -0.18136 L 0.99307 -0.14832" />
    <path d="M -5.45646 -0.10222 L -5.45646 -0.10536 L -11.83107 -0.13839 L -11.83107 -0.07249" />
    <path d="M -5.54691 -0.18025 L -11.83107 -0.13839" />
    <path d="M -5.38154 -0.18136 L -5.38154 -0.1794" />
    <path d="M 0.8277 -0.06966 L 0.8277 -0.14722 L -5.54691 -0.18025" />
    <path d="M 0.8277 -0.14722 L -5.45646 -0.10536" />
    <path d="M -6.53138 -0.1078 L -6.34389 -0.10682" />
    <path d="M -6.34389 -0.1046 L -6.34389 -0.10682" />
    <path d="M -6.1564 -0.10585 L 0.96816 -0.06893 L -7.96196 -0.00944 L -7.96196 0.49055 L 0.96816 0.43106 L 0.96816 -0.06893" />
    <path d="M -15.4615 -0.04831 L -6.53138 -0.1078" />
    <path d="M -15.4615 -0.04831 L -15.4615 0.45168 L -7.96196 0.49055" />
    <path d="M -15.27401 -0.04734 L -6.34389 -0.10682" />
    <path d="M -15.4615 -0.04831 L -15.27401 -0.04734 L -15.27401 0.20266 L -15.08652 0.20141" />
    <path d="M -15.27401 0.20266 L -15.08652 0.20363" />
    <path d="M -15.08652 -0.04637 L -15.08652 0.20363" />
    <path d="M -6.1564 -0.10585 L -15.08652 -0.04637 L -7.96196 -0.00944" />
    <path d="M 13.0553 0.12004 L 6.33025 0.13333" />
    <path d="M 13.0553 -0.37995 L 13.0553 0.12004" />
    <path d="M 12.89594 -0.38274 L 9.86797 -0.43564" />
    <path d="M 12.89594 -0.38274 L 12.89594 -0.38119" />
    <path d="M 13.0553 -0.37995 L 12.97562 -0.38135" />
    <path d="M 0.2594 -0.33545 L 0.2594 -0.35467 L 0.17972 -0.35606 L 12.97562 -0.38135" />
    <path d="M 0.17972 -0.33554 L 0.17972 -0.35606" />
    <path d="M 0.10004 -0.33564 L 0.10004 -0.35746 L 12.89594 -0.38274" />
    <path d="M 0.10004 -0.35746 L -2.92793 -0.41036 L 9.86797 -0.43564" />
    <path d="M -2.92793 -0.33923 L -2.92793 -0.41036" />
    <path d="M 13.0553 -0.37995 L 0.2594 -0.35467" />
    <path d="M 5.36024 -0.3294 L 5.36024 -0.23259" />
    <path d="M -2.97167 -0.33928 L 5.36024 -0.3294 L 2.78766 -0.25453 L -5.54425 -0.26441 L -5.54425 -0.24553" />
    <path d="M 2.78766 -0.25453 L 2.78766 -0.23564" />
    <path d="M -5.54425 -0.26441 L -2.97167 -0.33928" />
</svg>