<svg version="1.1" xmlns="http://www.w3.org/2000/svg" viewBox="-14.044826783635317 -1.4854293523109852 27.692860073186633 2.9854026758027965" fill="none" stroke="black" stroke-width="0.6%" vector-effect="non-scaling-stroke">
    <path d="M 3.95873 -0.14611 L 0.03824 -0.15203" />
    <path d="M 3.95873 -0.14611 L 3.95873 0.35387 L -0.00921 0.49997 L -0.00921 -0.00001 L 3.95873 -0.14611 Z" />
    <path d="M -0.00921 0.49997 L -3.92969 0.49406 L -3.92969 -0.00593 L 0.03824 -0.15203" />
    <path d="M -0.00921 -0.00001 L -3.92969 -0.00593" />
    <path d="M -4.56677 0.4931 L -8.48726 0.48718 L -8.48726 0.23719 L -8.38806 0.23354 L -8.38806 -0.01646 L -5.9081 -0.10777" />
    <path d="M -4.56677 0.2431 L -8.48726 0.23719" />
    <path d="M -4.56677 0.4931 L -4.56677 0.2431 L -4.46757 0.23945 L -4.46757 -0.01054 L -4.7126 -0.01091" />
    <path d="M -3.92969 0.46964 L -4.56677 0.4931" />
    <path d="M -4.95763 0.23871 L -8.38806 0.23354" />
    <path d="M -4.7126 0.22969 L -4.95763 0.23871 L -4.95763 -0.01128 L -2.47768 -0.10259 L -2.47768 -0.0932" />
    <path d="M -4.46757 0.23945 L -4.7126 0.23908 L -4.7126 -0.01091" />
    <path d="M -4.46757 -0.01054 L -1.98761 -0.10185 L -2.23264 -0.10222 L -4.7126 -0.01091" />
    <path d="M -1.98761 -0.10185 L -1.98761 -0.07744" />
    <path d="M -4.95763 -0.01128 L -8.38806 -0.01646" />
    <path d="M -2.47768 -0.10259 L -5.9081 -0.10777" />
    <path d="M -1.66026 -0.08949 L -1.66026 -0.11391 L -1.90529 -0.11428" />
    <path d="M -1.66026 -0.11391 L 0.8197 -0.20522 L 0.57467 -0.20559 L -1.90529 -0.11428" />
    <path d="M 0.8197 -0.20522 L 0.8197 -0.15085" />
    <path d="M -5.58075 -0.10727 L -5.58075 -0.11982 L -3.10079 -0.21113" />
    <path d="M 0.32964 -0.20596 L 0.32964 -0.19657" />
    <path d="M 0.32964 -0.20596 L -3.10079 -0.21113" />
    <path d="M -1.90529 -0.08047 L -1.90529 -0.11428" />
    <path d="M -2.15032 -0.1021 L -2.15032 -0.11465 L 0.32964 -0.20596" />
    <path d="M -2.15032 -0.11465 L -5.58075 -0.11982" />
    <path d="M 0.4033 -0.35337 L 0.4033 -0.36234 L 0.2159 -0.36357" />
    <path d="M 0.2159 -0.35365 L 0.2159 -0.36357" />
    <path d="M 0.02849 -0.35393 L 0.02849 -0.36481 L 12.27323 -0.46816 L 9.64958 -0.48543" />
    <path d="M 0.02849 -0.36481 L -2.59515 -0.38207 L 9.64958 -0.48543" />
    <path d="M -2.59515 -0.35789 L -2.59515 -0.38207" />
    <path d="M 12.64803 -0.4657 L 0.4033 -0.36234" />
    <path d="M 12.64803 -0.4657 L 12.64803 0.03429 L 8.98173 0.06524" />
    <path d="M 12.46063 -0.46693 L 0.2159 -0.36357" />
    <path d="M 12.64803 -0.4657 L 12.46063 -0.46693" />
    <path d="M 12.27323 -0.46816 L 12.27323 -0.46535" />
    <path d="M -9.12434 0.48622 L -13.04483 0.48031 L -13.04483 -0.01968 L -9.37449 -0.15482" />
    <path d="M -8.48726 0.46276 L -9.12434 0.48622 L -9.12434 -0.01377 L -9.36937 -0.01414 L -5.69903 -0.14928" />
    <path d="M -5.454 -0.14891 L -5.454 -0.12449" />
    <path d="M -5.94406 -0.14965 L -9.37449 -0.15482" />
    <path d="M -5.94406 -0.14965 L -5.94406 -0.14025" />
    <path d="M -5.454 -0.14891 L -5.69903 -0.14928" />
    <path d="M -9.36937 0.23586 L -9.36937 -0.01414" />
    <path d="M -9.36937 0.23586 L -9.6144 0.23549 L -9.6144 -0.0145 L -5.94406 -0.14965" />
    <path d="M -9.6144 -0.0145 L -13.04483 -0.01968" />
    <path d="M -5.454 -0.14891 L -9.12434 -0.01377" />
    <path d="M -9.36937 0.22647 L -9.6144 0.23549" />
    <path d="M 5.31139 0.04281 L 5.31139 0.2928 L 3.95873 0.29076" />
    <path d="M 5.31139 0.04281 L 3.95873 0.04077" />
    <path d="M 8.98173 -0.09233 L 8.98173 0.15766 L 5.31139 0.2928" />
    <path d="M 8.98173 -0.09233 L 5.31139 0.04281" />
    <path d="M 8.6871 -0.09278 L 8.98173 -0.09233" />
    <path d="M 5.11595 0.04061 L 3.95873 0.03887" />
    <path d="M 8.6871 -0.09088 L 5.11595 0.04061" />
    <path d="M 5.11595 -0.20938 L 5.11595 0.04061" />
    <path d="M -7.13557 -0.22787 L -7.13557 -0.15144" />
    <path d="M 5.11595 -0.20938 L -7.13557 -0.22787 L -3.56443 -0.35935 L 8.6871 -0.34087 L 5.11595 -0.20938 Z" />
    <path d="M 8.6871 -0.34087 L 8.6871 -0.09088" />
</svg>