<svg version="1.1" xmlns="http://www.w3.org/2000/svg" viewBox="-16.35390768959614 -1.4845067930757367 32.743900695369746 2.976109642375618" fill="none" stroke="black" stroke-width="0.6%" vector-effect="non-scaling-stroke">
    <path d="M -2.45676 -0.42851 L 4.59118 -0.4188 L 2.00142 -0.46943 L 10.12465 -0.48451" />
    <path d="M 2.00142 -0.42237 L 2.00142 -0.46943" />
    <path d="M 1.80547 -0.34541 L -5.24247 -0.35511 L -2.45676 -0.42851" />
    <path d="M 12.9217 -0.42982 L 10.12465 -0.48451" />
    <path d="M 5.96387 -0.41691 L 12.9217 -0.42982 L 12.9217 -0.40733" />
    <path d="M 5.96387 -0.41691 L 15.09057 -0.40435 L 15.09057 -0.15435 L 12.30486 -0.08096 L 8.51347 -0.08618" />
    <path d="M 15.09057 -0.40435 L 12.30486 -0.33095 L 12.30486 -0.08096" />
    <path d="M 12.30486 -0.33095 L 3.17816 -0.34352" />
    <path d="M 8.51347 -0.31368 L 3.17816 -0.34352" />
    <path d="M 8.51347 -0.31368 L 2.04943 -0.27175 L -4.17952 -0.30658 L -4.17952 -0.27328" />
    <path d="M 1.80547 -0.34541 L -4.17952 -0.30658" />
    <path d="M -5.24247 -0.35511 L -5.24247 -0.27474" />
    <path d="M 8.87988 0.18836 L 3.55688 0.22289" />
    <path d="M 12.49285 0.17084 L 8.87988 0.16587" />
    <path d="M 15.38999 0.09451 L 12.49285 0.17084" />
    <path d="M 8.51347 -0.06368 L 8.51347 -0.31368" />
    <path d="M 8.87988 -0.06164 L 8.51347 -0.06368 L 3.55688 -0.03153" />
    <path d="M 8.87988 0.18836 L 8.87988 -0.06164 L 3.55688 -0.02711" />
    <path d="M 12.49285 -0.07915 L 8.51347 -0.08463" />
    <path d="M 15.38999 -0.15548 L 12.49285 -0.07915 L 12.49285 0.17084" />
    <path d="M 15.09057 -0.15589 L 15.38999 -0.15548 L 15.38999 0.09451" />
    <path d="M 2.04943 -0.2647 L 2.04943 -0.27175" />
    <path d="M -11.8662 -0.11303 L -11.8662 -0.10901" />
    <path d="M -2.74997 0.39951 L -2.60511 0.39971 L 0.40345 0.32045 L 0.40345 -0.17955 L -2.60511 -0.10028 L -2.60511 0.39971" />
    <path d="M -11.8662 -0.11303 L -2.60511 -0.10028" />
    <path d="M -8.85763 -0.1923 L -11.8662 -0.11303" />
    <path d="M -8.85763 -0.1923 L 0.40345 -0.17955" />
    <path d="M 0.54831 0.31663 L 3.55688 0.23736 L 3.55688 -0.26263 L 0.54831 -0.18336 L 0.54831 0.31663 Z" />
    <path d="M 0.40345 0.31643 L 0.54831 0.31663" />
    <path d="M -8.71278 -0.19611 L -8.71278 -0.1921" />
    <path d="M -5.70421 -0.27538 L -8.71278 -0.19611 L 0.54831 -0.18336" />
    <path d="M -5.70421 -0.27538 L 3.55688 -0.26263" />
    <path d="M -2.74997 -0.09646 L -2.74997 0.40353 L -6.09282 0.4916 L -6.09282 -0.00839 L -15.35391 -0.02114 L -12.01106 -0.10921" />
    <path d="M -2.74997 -0.09646 L -12.01106 -0.10921" />
    <path d="M -6.09282 -0.00839 L -2.74997 -0.09646" />
    <path d="M -6.09282 0.4916 L -15.35391 0.47885 L -15.35391 -0.02114" />
</svg>