<svg version="1.1" xmlns="http://www.w3.org/2000/svg" viewBox="-16.208037114264254 -1.4971038080643728 30.019842772547033 2.987715181470228" fill="none" stroke="black" stroke-width="0.6%" vector-effect="non-scaling-stroke">
    <path d="M -1.74538 -0.448 L -1.74538 -0.41156" />
    <path d="M -0.09697 -0.4971 L -1.74538 -0.448 L 7.57427 -0.43715 L 7.57427 -0.43026" />
    <path d="M 9.22268 -0.43357 L 9.22268 -0.48625 L 7.57427 -0.43715" />
    <path d="M -0.09697 -0.4971 L 9.22268 -0.48625" />
    <path d="M 0.98951 -0.14782 L -5.40775 -0.18078 L -11.66309 -0.13867 L -11.66309 -0.07008" />
    <path d="M 0.98951 0.10218 L 0.98951 -0.14782 L -5.26583 -0.10571 L -11.66309 -0.13867" />
    <path d="M 1.36582 0.10411 L 0.98951 0.10218 L 0.83101 0.10324" />
    <path d="M 1.36582 0.35411 L 1.36582 0.10411 L 0.83101 0.10771" />
    <path d="M 1.36582 0.35411 L 0.83101 0.35771" />
    <path d="M -5.26583 -0.10063 L -5.26583 -0.10571" />
    <path d="M 0.83101 -0.06922 L 0.83101 0.43078 L -8.05816 0.49061 L -8.05816 -0.00938 L -15.20804 -0.04622 L -6.31887 -0.10605" />
    <path d="M 0.83101 -0.06922 L -6.31887 -0.10605" />
    <path d="M -8.05816 -0.00938 L 0.83101 -0.06922" />
    <path d="M -8.05816 0.49061 L -15.20804 0.45377 L -15.20804 -0.04622" />
    <path d="M 12.8118 0.11832 L 7.97278 0.12804" />
    <path d="M 12.8118 -0.38167 L 12.8118 0.11832" />
    <path d="M 0.03339 -0.35602 L 12.8118 -0.38167 L 9.7475 -0.43462" />
    <path d="M 0.03339 -0.35048 L 0.03339 -0.35602 L -3.03092 -0.40898 L 9.7475 -0.43462" />
    <path d="M -3.03092 -0.35404 L -3.03092 -0.40898" />
    <path d="M -10.33653 -0.19206 L -10.33653 -0.1476" />
    <path d="M -8.49419 -0.24695 L -10.33653 -0.19206" />
    <path d="M 6.22104 -0.22982 L -8.49419 -0.24695" />
    <path d="M 6.22104 0.27017 L 6.22104 -0.22982 L 4.37869 -0.17493 L -10.33653 -0.19206" />
    <path d="M 6.22104 0.27017 L 4.37869 0.32506 L 4.37869 -0.17493" />
    <path d="M 1.36582 0.32155 L 4.37869 0.32506" />
    <path d="M 7.97278 -0.09274 L 7.97278 0.15726 L 6.22104 0.20944" />
    <path d="M 7.67904 -0.09308 L 7.97278 -0.09274 L 6.22104 -0.04055" />
    <path d="M 7.67904 -0.09158 L 6.22104 -0.04815" />
    <path d="M 7.67904 -0.34158 L 7.67904 -0.09158" />
    <path d="M -4.58365 -0.35585 L 7.67904 -0.34158 L 4.18829 -0.23759 L -8.0744 -0.25186 L -4.58365 -0.35585 Z" />
    <path d="M 4.18829 -0.23759 L 4.18829 -0.23218" />
    <path d="M -8.0744 -0.25186 L -8.0744 -0.24646" />
</svg>