<svg version="1.1" xmlns="http://www.w3.org/2000/svg" viewBox="-25.410074754805414 -1.4999933084329413 47.89698309616593 2.9680060746799493" fill="none" stroke="black" stroke-width="0.6%" vector-effect="non-scaling-stroke">
    <path d="M -14.20328 -0.09188 L -14.20328 -0.05977" />
    <path d="M -13.45267 0.42724 L -12.17068 0.45991 L -2.89067 0.44857 L -2.89067 -0.05142 L -12.17068 -0.04008 L -12.17068 0.45991" />
    <path d="M -14.20328 -0.09188 L -12.17068 -0.04008" />
    <path d="M -4.92327 -0.10323 L -14.20328 -0.09188" />
    <path d="M -4.92327 -0.10323 L -2.89067 -0.05142" />
    <path d="M 6.31902 -0.43594 L 6.31902 -0.37648" />
    <path d="M 6.31902 -0.43594 L -2.734 -0.45201" />
    <path d="M 3.4393 -0.3854 L 6.31902 -0.43594" />
    <path d="M 3.4393 -0.38159 L 3.4393 -0.3854 L -5.61372 -0.40147 L -2.734 -0.45201" />
    <path d="M -5.61372 -0.39767 L -5.61372 -0.40147" />
    <path d="M -12.51191 -0.15567 L -12.51191 -0.15196" />
    <path d="M -3.2319 -0.16702 L -3.2319 -0.06012" />
    <path d="M -12.51191 -0.15567 L -3.2319 -0.16702" />
    <path d="M -15.40034 -0.22929 L -12.51191 -0.15567" />
    <path d="M -15.40034 -0.14842 L -15.40034 -0.22929 L -6.12033 -0.24063 L -3.2319 -0.16702" />
    <path d="M 7.05407 -0.37517 L -5.81075 -0.39802 L -8.69047 -0.34748 L -8.69047 -0.30037" />
    <path d="M 7.05407 -0.3586 L 7.05407 -0.37517 L 4.17435 -0.32463 L -8.69047 -0.34748" />
    <path d="M 4.17435 -0.30806 L 4.17435 -0.32463" />
    <path d="M -20.35316 -0.14237 L -20.35316 -0.09182" />
    <path d="M -18.32056 -0.09056 L -18.32056 -0.08498" />
    <path d="M -20.35316 -0.14237 L -18.32056 -0.09056" />
    <path d="M -5.70052 -0.16028 L -20.35316 -0.14237" />
    <path d="M -3.66792 -0.07123 L -3.66792 -0.10848 L -18.32056 -0.09056" />
    <path d="M -5.70052 -0.16028 L -3.66792 -0.10848" />
    <path d="M -11.93161 -0.28387 L -11.93161 -0.23353" />
    <path d="M -11.93161 -0.28387 L -2.69421 -0.33088 L 9.43265 -0.25663 L 0.19525 -0.20962 L -11.93161 -0.28387 Z" />
    <path d="M 9.43265 -0.25663 L 9.43265 -0.2194" />
    <path d="M 0.19525 -0.20962 L 0.19525 -0.20282" />
    <path d="M -24.41007 -0.07117 L -24.41007 0.42882 L -18.00979 0.46801 L -18.00979 -0.03198 L -24.41007 -0.07117 Z" />
    <path d="M -19.85296 -0.09436 L -24.41007 -0.07117" />
    <path d="M -13.45267 -0.05517 L -19.85296 -0.09436" />
    <path d="M -13.45267 0.44482 L -13.45267 -0.05517 L -18.00979 -0.03198" />
    <path d="M -13.45267 0.44482 L -18.00979 0.46801" />
    <path d="M 7.00783 -0.43562 L 7.00783 -0.37525" />
    <path d="M 8.32724 -0.40199 L 8.32724 -0.38094" />
    <path d="M 7.00783 -0.43562 L 8.32724 -0.40199" />
    <path d="M 16.28784 -0.44696 L 7.00783 -0.43562" />
    <path d="M 17.60725 -0.38251 L 17.60725 -0.41334 L 8.32724 -0.40199" />
    <path d="M 16.28784 -0.44696 L 17.60725 -0.41334" />
    <path d="M 10.87356 -0.21058 L 10.87356 0.28941 L 7.21294 0.30804" />
    <path d="M 10.87356 -0.21058 L 6.71899 -0.23602" />
    <path d="M 0.89717 -0.15981 L 10.87356 -0.21058" />
    <path d="M 0.89717 -0.14924 L 0.89717 -0.15981 L -3.2574 -0.18525 L 6.71899 -0.23602" />
    <path d="M -3.2574 -0.16767 L -3.2574 -0.18525" />
    <path d="M 12.86482 -0.47715 L 0 -0.49999 L -1.86929 -0.46719 L -1.86929 -0.45048" />
    <path d="M 12.86482 -0.44278 L 12.86482 -0.47715 L 10.99553 -0.44434 L -1.86929 -0.46719" />
    <path d="M 10.99553 -0.44049 L 10.99553 -0.44434" />
    <path d="M -3.21051 -0.07716 L -3.21051 -0.05958" />
    <path d="M -2.89067 0.4234 L 2.66601 0.43327 L 7.21294 0.35348 L 7.21294 -0.14652 L 2.66601 -0.06672 L 2.66601 0.43327" />
    <path d="M -3.21051 -0.07716 L 2.66601 -0.06672" />
    <path d="M 1.33642 -0.15695 L -3.21051 -0.07716" />
    <path d="M 1.33642 -0.15695 L 7.21294 -0.14652" />
    <path d="M 21.48691 -0.12709 L 21.48691 0.12291 L 15.87903 0.22132 L 10.87356 0.21244" />
    <path d="M 21.17289 -0.12764 L 21.48691 -0.12709 L 15.87903 -0.02867 L 10.87356 -0.03756" />
    <path d="M 15.87903 -0.02867 L 15.87903 0.22132" />
    <path d="M 21.17289 -0.12618 L 15.71657 -0.03043 L 10.87356 -0.03902" />
    <path d="M 21.17289 -0.37618 L 21.17289 -0.12618" />
    <path d="M 9.26102 -0.39733 L 21.17289 -0.37618 L 15.71657 -0.28042 L 3.8047 -0.30157 L 3.8047 -0.29109" />
    <path d="M 15.71657 -0.28042 L 15.71657 -0.03043" />
    <path d="M 3.8047 -0.30157 L 9.26102 -0.39733" />
</svg>