<svg version="1.1" xmlns="http://www.w3.org/2000/svg" viewBox="-13.999446474405708 -1.484406736136859 27.026686673700922 2.9843920473318684" fill="none" stroke="black" stroke-width="0.6%" vector-effect="non-scaling-stroke">
    <path d="M 4.22779 -0.15534 L 0.31818 -0.16206" />
    <path d="M 4.22779 -0.15534 L 4.22779 0.34464 L 0 0.49998 L 0 0 L 4.22779 -0.15534 Z" />
    <path d="M 0 0.49998 L -3.90961 0.49326 L -3.90961 -0.00672 L 0.31818 -0.16206" />
    <path d="M 0 0 L -3.90961 -0.00672" />
    <path d="M -4.54492 0.49217 L -8.45453 0.48545 L -8.45453 0.23546 L -8.34883 0.23158 L -8.34883 -0.01841 L -6.12924 -0.09997" />
    <path d="M -4.54492 0.24218 L -8.45453 0.23546" />
    <path d="M -4.54492 0.49217 L -4.54492 0.24218 L -4.43922 0.2383 L -4.43922 -0.01169 L -4.68357 -0.01211" />
    <path d="M -3.90961 0.46883 L -4.54492 0.49217" />
    <path d="M -4.92793 0.23746 L -8.34883 0.23158" />
    <path d="M -4.68357 0.22848 L -4.92793 0.23746 L -4.92793 -0.01253 L -2.70834 -0.09409 L -2.70834 -0.08469" />
    <path d="M -4.43922 0.2383 L -4.68357 0.23788 L -4.68357 -0.01211" />
    <path d="M -4.43922 -0.01169 L -2.21963 -0.09325 L -2.46399 -0.09367 L -4.68357 -0.01211" />
    <path d="M -2.21963 -0.09325 L -2.21963 -0.06881" />
    <path d="M -4.92793 -0.01253 L -8.34883 -0.01841" />
    <path d="M -2.70834 -0.09409 L -6.12924 -0.09997" />
    <path d="M -1.87084 -0.08163 L -1.87084 -0.10607 L -2.11519 -0.10649" />
    <path d="M -1.87084 -0.10607 L 0.34875 -0.18762 L 0.1044 -0.18804 L -2.11519 -0.10649" />
    <path d="M 0.34875 -0.18762 L 0.34875 -0.16201" />
    <path d="M -5.78045 -0.09937 L -5.78045 -0.11279 L -3.56086 -0.19434" />
    <path d="M -0.13995 -0.18846 L -0.13995 -0.17906" />
    <path d="M -0.13995 -0.18846 L -3.56086 -0.19434" />
    <path d="M -2.11519 -0.07265 L -2.11519 -0.10649" />
    <path d="M -2.35954 -0.09349 L -2.35954 -0.10691 L -0.13995 -0.18846" />
    <path d="M -2.35954 -0.10691 L -5.78045 -0.11279" />
    <path d="M -0.4005 -0.34664 L -0.4005 -0.35415 L -0.58569 -0.35548" />
    <path d="M -0.58569 -0.34696 L -0.58569 -0.35548" />
    <path d="M -0.77088 -0.34728 L -0.77088 -0.35682 L 11.65686 -0.46572 L 9.0642 -0.48441" />
    <path d="M -0.77088 -0.35682 L -3.36354 -0.3755 L 9.0642 -0.48441" />
    <path d="M -3.36354 -0.35173 L -3.36354 -0.3755" />
    <path d="M 12.02724 -0.46305 L -0.4005 -0.35415" />
    <path d="M 12.02724 -0.46305 L 12.02724 0.03693 L 6.79944 0.08274" />
    <path d="M 11.84205 -0.46439 L -0.58569 -0.35548" />
    <path d="M 12.02724 -0.46305 L 11.84205 -0.46439" />
    <path d="M 11.65686 -0.46572 L 11.65686 -0.46276" />
    <path d="M -9.08984 0.48436 L -12.99945 0.47764 L -12.99945 -0.02234 L -9.08874 -0.16603" />
    <path d="M -8.45453 0.46102 L -9.08984 0.48436 L -9.08984 -0.01562 L -9.33419 -0.01604 L -5.42348 -0.15973" />
    <path d="M -5.17913 -0.15931 L -5.17913 -0.13488" />
    <path d="M -5.66783 -0.16015 L -9.08874 -0.16603" />
    <path d="M -5.66783 -0.16015 L -5.66783 -0.15076" />
    <path d="M -5.17913 -0.15931 L -5.42348 -0.15973" />
    <path d="M -9.33419 0.23395 L -9.33419 -0.01604" />
    <path d="M -9.33419 0.23395 L -9.57854 0.23353 L -9.57854 -0.01646 L -5.66783 -0.16015" />
    <path d="M -9.57854 -0.01646 L -12.99945 -0.02234" />
    <path d="M -5.17913 -0.15931 L -9.08984 -0.01562" />
    <path d="M -9.33419 0.22455 L -9.57854 0.23353" />
    <path d="M 6.79944 -0.08631 L 6.79944 0.16369 L 4.22779 0.25818" />
    <path d="M 6.79944 -0.08631 L 4.22779 0.00819" />
    <path d="M 6.50225 -0.08682 L 6.79944 -0.08631" />
    <path d="M 6.50225 -0.08478 L 4.22779 -0.00121" />
    <path d="M 2.69724 -0.19497 L 2.69724 -0.15797" />
    <path d="M -7.56548 -0.21261 L -7.56548 -0.16342" />
    <path d="M 2.69724 -0.19497 L -7.56548 -0.21261 L -3.76047 -0.35241 L 6.50225 -0.33478 L 6.50225 -0.08478" />
    <path d="M 6.50225 -0.33478 L 2.69724 -0.19497" />
</svg>